<svg width="20" height="20" viewBox="0 0 20 20" fill="none" xmlns="http://www.w3.org/2000/svg">
<path d="M9.75127 0.5C9.55235 0.5 9.36159 0.579018 9.22094 0.71967C9.08028 0.860322 9.00127 1.05109 9.00127 1.25V6.5C9.00127 6.69891 9.08028 6.88968 9.22094 7.03033C9.36159 7.17098 9.55235 7.25 9.75127 7.25C10.4116 7.25015 11.0535 7.46819 11.5773 7.8703C12.1012 8.27241 12.4777 8.83613 12.6485 9.47403C12.8193 10.1119 12.7749 10.7884 12.5221 11.3984C12.2693 12.0085 11.8222 12.5181 11.2503 12.8482C10.6784 13.1784 10.0135 13.3106 9.35876 13.2243C8.70405 13.1381 8.09608 12.8382 7.62915 12.3712C7.16222 11.9042 6.86242 11.2962 6.77625 10.6415C6.69007 9.98677 6.82233 9.3219 7.15252 8.75C7.20178 8.66469 7.23376 8.5705 7.24661 8.47283C7.25947 8.37516 7.25296 8.27591 7.22745 8.18075C7.20194 8.08559 7.15794 7.9964 7.09795 7.91825C7.03796 7.84011 6.96316 7.77454 6.87783 7.72531L2.33095 5.10031C2.24564 5.05105 2.15146 5.01907 2.05378 5.00622C1.95611 4.99336 1.85686 4.99987 1.7617 5.02538C1.66655 5.05089 1.57735 5.09489 1.4992 5.15488C1.42106 5.21487 1.3555 5.28967 1.30627 5.375C0.233138 7.23371 -0.196702 9.39458 0.083406 11.5225C0.363514 13.6504 1.33792 15.6264 2.8555 17.1441C4.37308 18.6618 6.34904 19.6363 8.47692 19.9165C10.6048 20.1968 12.7657 19.7671 14.6245 18.6941C16.4833 17.6211 17.936 15.9647 18.7575 13.9819C19.579 11.9991 19.7233 9.8006 19.168 7.72742C18.6127 5.65424 17.3889 3.82222 15.6863 2.51547C13.9837 1.20872 11.8975 0.500276 9.75127 0.5ZM2.2597 6.79062L5.53252 8.68062C5.34628 9.18289 5.25104 9.71432 5.25127 10.25C5.25127 10.3934 5.25877 10.5312 5.27189 10.6737L1.62127 11.6562C1.33657 10.0071 1.5592 8.31046 2.2597 6.79062ZM2.00939 13.1009L5.66564 12.1222C5.97133 12.7885 6.43486 13.3703 7.0161 13.8171C7.59733 14.2639 8.27873 14.5622 9.00127 14.6863V18.4653C7.4486 18.3214 5.96828 17.7414 4.73113 16.7922C3.49398 15.843 2.55044 14.5634 2.00939 13.1009ZM10.5013 18.4653V14.6863C11.5494 14.5086 12.5008 13.9656 13.1868 13.1535C13.8729 12.3414 14.2493 11.3126 14.2493 10.2495C14.2493 9.18644 13.8729 8.15768 13.1868 7.34557C12.5008 6.53347 11.5494 5.99047 10.5013 5.81281V2.03375C12.5508 2.22101 14.4564 3.16756 15.8439 4.68761C17.2314 6.20767 18.0006 8.19144 18.0006 10.2495C18.0006 12.3076 17.2314 14.2914 15.8439 15.8114C14.4564 17.3315 12.5508 18.2781 10.5013 18.4653Z" fill="#525252"/>
</svg>
