<svg width="20" height="17" viewBox="0 0 20 17" fill="none" xmlns="http://www.w3.org/2000/svg">
<path d="M18 0H1.5C1.10218 0 0.720644 0.158035 0.43934 0.43934C0.158035 0.720644 0 1.10218 0 1.5V15C0 15.3978 0.158035 15.7794 0.43934 16.0607C0.720644 16.342 1.10218 16.5 1.5 16.5H18C18.3978 16.5 18.7794 16.342 19.0607 16.0607C19.342 15.7794 19.5 15.3978 19.5 15V1.5C19.5 1.10218 19.342 0.720644 19.0607 0.43934C18.7794 0.158035 18.3978 0 18 0ZM18 1.5V5.25H1.5V1.5H18ZM1.5 6.75H6.75V15H1.5V6.75ZM18 15H8.25V6.75H18V15Z" fill="#156534"/>
</svg>
