<svg width="20" height="20" viewBox="0 0 20 20" fill="none" xmlns="http://www.w3.org/2000/svg">
<path d="M19.2258 5.19242L15.0361 1.00367C14.8968 0.864346 14.7315 0.753826 14.5494 0.678422C14.3674 0.603019 14.1723 0.564209 13.9753 0.564209C13.7783 0.564209 13.5832 0.603019 13.4012 0.678422C13.2192 0.753826 13.0538 0.864346 12.9146 1.00367L1.35425 12.564C1.21435 12.7028 1.10344 12.868 1.02796 13.05C0.952475 13.232 0.913929 13.4272 0.914558 13.6243V17.814C0.914558 18.2118 1.07259 18.5933 1.3539 18.8746C1.6352 19.1559 2.01673 19.314 2.41456 19.314H18.1646C18.3635 19.314 18.5542 19.235 18.6949 19.0943C18.8355 18.9537 18.9146 18.7629 18.9146 18.564C18.9146 18.3651 18.8355 18.1743 18.6949 18.0337C18.5542 17.893 18.3635 17.814 18.1646 17.814H8.72581L19.2258 7.31398C19.3651 7.17469 19.4757 7.00932 19.5511 6.82731C19.6265 6.64529 19.6653 6.45021 19.6653 6.2532C19.6653 6.05619 19.6265 5.86111 19.5511 5.6791C19.4757 5.49709 19.3651 5.33171 19.2258 5.19242ZM6.60425 17.814H2.41456V13.6243L10.6646 5.37429L14.8542 9.56398L6.60425 17.814ZM15.9146 8.50367L11.7258 4.31398L13.9758 2.06398L18.1646 6.25367L15.9146 8.50367Z" fill="white"/>
</svg>
