<svg width="17" height="12" viewBox="0 0 17 12" fill="none" xmlns="http://www.w3.org/2000/svg">
<path d="M15.5718 0H1.17178C1.01265 0 0.860035 0.0632142 0.747513 0.175736C0.634991 0.288258 0.571777 0.44087 0.571777 0.6V10.8C0.571777 11.1183 0.698206 11.4235 0.923249 11.6485C1.14829 11.8736 1.45352 12 1.77178 12H14.9718C15.29 12 15.5953 11.8736 15.8203 11.6485C16.0453 11.4235 16.1718 11.1183 16.1718 10.8V0.6C16.1718 0.44087 16.1086 0.288258 15.996 0.175736C15.8835 0.0632142 15.7309 0 15.5718 0ZM8.37178 6.38625L2.71453 1.2H14.029L8.37178 6.38625ZM6.17503 6L1.77178 10.0358V1.96425L6.17503 6ZM7.06303 6.81375L7.96303 7.6425C8.07372 7.74411 8.21851 7.8005 8.36878 7.8005C8.51904 7.8005 8.66383 7.74411 8.77453 7.6425L9.67453 6.81375L14.0245 10.8H2.71453L7.06303 6.81375ZM10.5685 6L14.9718 1.9635V10.0365L10.5685 6Z" fill="#0A0A0A"/>
</svg>
