<svg width="13" height="16" viewBox="0 0 13 16" fill="none" xmlns="http://www.w3.org/2000/svg">
<path d="M6.28578 3.42861C5.72068 3.42861 5.16828 3.59618 4.69842 3.91013C4.22856 4.22408 3.86235 4.67031 3.64609 5.19239C3.42984 5.71447 3.37326 6.28895 3.48351 6.84318C3.59375 7.39742 3.86587 7.90652 4.26545 8.3061C4.66503 8.70569 5.17413 8.97781 5.72837 9.08805C6.28261 9.19829 6.85709 9.14171 7.37917 8.92546C7.90125 8.70921 8.34748 8.343 8.66143 7.87314C8.97538 7.40328 9.14295 6.85087 9.14295 6.28578C9.14295 5.52801 8.84193 4.80128 8.3061 4.26545C7.77028 3.72963 7.04355 3.42861 6.28578 3.42861ZM6.28578 8.00008C5.94672 8.00008 5.61528 7.89954 5.33336 7.71117C5.05145 7.5228 4.83172 7.25506 4.70197 6.94181C4.57222 6.62856 4.53827 6.28388 4.60441 5.95133C4.67056 5.61879 4.83383 5.31333 5.07358 5.07358C5.31333 4.83383 5.61879 4.67056 5.95133 4.60441C6.28387 4.53827 6.62856 4.57222 6.94181 4.70197C7.25506 4.83172 7.5228 5.05145 7.71117 5.33336C7.89954 5.61528 8.00008 5.94672 8.00008 6.28578C8.00008 6.74044 7.81947 7.17648 7.49797 7.49797C7.17648 7.81947 6.74044 8.00008 6.28578 8.00008ZM6.28578 0C4.61927 0.00189054 3.02155 0.664747 1.84315 1.84315C0.664747 3.02155 0.00189054 4.61927 0 6.28578C0 8.52866 1.03644 10.9058 3.00003 13.1608C3.88234 14.1798 4.87537 15.0974 5.96077 15.8966C6.05685 15.9639 6.17132 16 6.28863 16C6.40594 16 6.52041 15.9639 6.61649 15.8966C7.6999 15.0971 8.691 14.1795 9.57152 13.1608C11.5323 10.9058 12.5716 8.52866 12.5716 6.28578C12.5697 4.61927 11.9068 3.02155 10.7284 1.84315C9.55 0.664747 7.95229 0.00189054 6.28578 0ZM6.28578 14.7144C5.10505 13.7859 1.14287 10.3751 1.14287 6.28578C1.14287 4.92179 1.68471 3.61367 2.64919 2.64919C3.61367 1.68471 4.92179 1.14287 6.28578 1.14287C7.64976 1.14287 8.95788 1.68471 9.92236 2.64919C10.8868 3.61367 11.4287 4.92179 11.4287 6.28578C11.4287 10.3737 7.4665 13.7859 6.28578 14.7144Z" fill="#0A0A0A"/>
</svg>
