<svg width="19" height="21" viewBox="0 0 19 21" fill="none" xmlns="http://www.w3.org/2000/svg">
<path d="M18.1646 3.81396H14.4146V3.06396C14.4146 2.46723 14.1775 1.89493 13.7555 1.47297C13.3336 1.05102 12.7613 0.813965 12.1646 0.813965H7.66455C7.06781 0.813965 6.49552 1.05102 6.07356 1.47297C5.6516 1.89493 5.41455 2.46723 5.41455 3.06396V3.81396H1.66455C1.46564 3.81396 1.27487 3.89298 1.13422 4.03363C0.993569 4.17429 0.914551 4.36505 0.914551 4.56396C0.914551 4.76288 0.993569 4.95364 1.13422 5.09429C1.27487 5.23495 1.46564 5.31396 1.66455 5.31396H2.41455V18.814C2.41455 19.2118 2.57259 19.5933 2.85389 19.8746C3.1352 20.1559 3.51673 20.314 3.91455 20.314H15.9146C16.3124 20.314 16.6939 20.1559 16.9752 19.8746C17.2565 19.5933 17.4146 19.2118 17.4146 18.814V5.31396H18.1646C18.3635 5.31396 18.5542 5.23495 18.6949 5.09429C18.8355 4.95364 18.9146 4.76288 18.9146 4.56396C18.9146 4.36505 18.8355 4.17429 18.6949 4.03363C18.5542 3.89298 18.3635 3.81396 18.1646 3.81396ZM6.91455 3.06396C6.91455 2.86505 6.99357 2.67429 7.13422 2.53363C7.27487 2.39298 7.46564 2.31396 7.66455 2.31396H12.1646C12.3635 2.31396 12.5542 2.39298 12.6949 2.53363C12.8355 2.67429 12.9146 2.86505 12.9146 3.06396V3.81396H6.91455V3.06396ZM15.9146 18.814H3.91455V5.31396H15.9146V18.814ZM8.41455 9.06396V15.064C8.41455 15.2629 8.33553 15.4536 8.19488 15.5943C8.05423 15.7349 7.86346 15.814 7.66455 15.814C7.46564 15.814 7.27487 15.7349 7.13422 15.5943C6.99357 15.4536 6.91455 15.2629 6.91455 15.064V9.06396C6.91455 8.86505 6.99357 8.67429 7.13422 8.53363C7.27487 8.39298 7.46564 8.31396 7.66455 8.31396C7.86346 8.31396 8.05423 8.39298 8.19488 8.53363C8.33553 8.67429 8.41455 8.86505 8.41455 9.06396ZM12.9146 9.06396V15.064C12.9146 15.2629 12.8355 15.4536 12.6949 15.5943C12.5542 15.7349 12.3635 15.814 12.1646 15.814C11.9656 15.814 11.7749 15.7349 11.6342 15.5943C11.4936 15.4536 11.4146 15.2629 11.4146 15.064V9.06396C11.4146 8.86505 11.4936 8.67429 11.6342 8.53363C11.7749 8.39298 11.9656 8.31396 12.1646 8.31396C12.3635 8.31396 12.5542 8.39298 12.6949 8.53363C12.8355 8.67429 12.9146 8.86505 12.9146 9.06396Z" fill="white"/>
</svg>
