<svg width="19" height="16" viewBox="0 0 19 16" fill="none" xmlns="http://www.w3.org/2000/svg">
<path d="M17.8459 12.6171C17.973 12.7695 18.0345 12.9661 18.017 13.1638C17.9994 13.3615 17.9042 13.5442 17.7522 13.6718C16.1247 15.0209 14.6716 15.4999 13.3459 15.4999C11.6041 15.4999 10.0816 14.673 8.665 13.9062C6.28844 12.6162 4.23625 11.5024 1.25219 13.9755C1.17653 14.0394 1.08898 14.0876 0.994597 14.1174C0.900214 14.1472 0.800861 14.1581 0.702267 14.1493C0.603673 14.1405 0.507788 14.1123 0.42014 14.0664C0.332493 14.0204 0.254816 13.9575 0.191589 13.8813C0.128362 13.8052 0.0808356 13.7172 0.0517495 13.6226C0.0226634 13.528 0.012593 13.4286 0.0221193 13.3301C0.0316456 13.2315 0.0605799 13.1359 0.107254 13.0486C0.153928 12.9613 0.217419 12.8841 0.294065 12.8215C4.06 9.70148 6.88656 11.2352 9.38125 12.589C11.7578 13.878 13.81 14.9918 16.7941 12.5196C16.9468 12.3938 17.1431 12.3335 17.3401 12.3517C17.5371 12.37 17.7189 12.4654 17.8459 12.6171ZM16.7894 7.27335C13.8053 9.74648 11.7531 8.63273 9.37657 7.34273C6.88188 5.98991 4.05532 4.45616 0.289378 7.57616C0.138101 7.70376 0.043386 7.88597 0.025873 8.0831C0.00835989 8.28022 0.0694684 8.47628 0.195882 8.62855C0.322295 8.78081 0.503766 8.87694 0.700749 8.89599C0.897732 8.91503 1.09426 8.85545 1.2475 8.73023C4.23156 6.2571 6.28375 7.37085 8.66032 8.66085C10.0769 9.42866 11.5994 10.2546 13.3413 10.2546C14.6669 10.2546 16.12 9.77554 17.7475 8.42648C17.8241 8.36384 17.8876 8.28666 17.9343 8.19937C17.981 8.11208 18.0099 8.01642 18.0194 7.9179C18.029 7.81938 18.0189 7.71994 17.9898 7.62533C17.9607 7.53072 17.9132 7.4428 17.85 7.36664C17.7868 7.29048 17.7091 7.2276 17.6214 7.1816C17.5338 7.13561 17.4379 7.10742 17.3393 7.09866C17.2407 7.0899 17.1414 7.10074 17.047 7.13057C16.9526 7.16039 16.865 7.2086 16.7894 7.27241V7.27335ZM1.2475 3.48116C4.23156 1.00898 6.28375 2.12273 8.66032 3.41179C10.0769 4.18054 11.5994 5.00554 13.3413 5.00554C14.6669 5.00554 16.12 4.52554 17.7475 3.17741C17.8241 3.11478 17.8876 3.0376 17.9343 2.95031C17.981 2.86302 18.0099 2.76736 18.0194 2.66884C18.029 2.57031 18.0189 2.47088 17.9898 2.37627C17.9607 2.28165 17.9132 2.19374 17.85 2.11758C17.7868 2.04142 17.7091 1.97853 17.6214 1.93254C17.5338 1.88655 17.4379 1.85836 17.3393 1.8496C17.2407 1.84084 17.1414 1.85168 17.047 1.8815C16.9526 1.91132 16.865 1.95953 16.7894 2.02335C13.8053 4.49648 11.7531 3.38273 9.37657 2.09273C6.88188 0.741789 4.05532 -0.79196 0.289378 2.32804C0.210058 2.38977 0.143955 2.46681 0.0949953 2.55459C0.046036 2.64237 0.0152195 2.73909 0.00437685 2.83902C-0.00646579 2.93894 0.00288656 3.04002 0.0318783 3.13626C0.0608699 3.2325 0.108909 3.32193 0.173143 3.39923C0.237376 3.47654 0.316492 3.54014 0.405791 3.58627C0.49509 3.6324 0.592751 3.66011 0.692969 3.66775C0.793187 3.6754 0.89392 3.66282 0.989181 3.63076C1.08444 3.59871 1.17229 3.54784 1.2475 3.48116Z" fill="#525252"/>
</svg>
