<svg width="24" height="24" viewBox="0 0 24 24" fill="none" xmlns="http://www.w3.org/2000/svg">
<path d="M24 15V8C24 7.73478 23.8946 7.48043 23.7071 7.29289C23.5196 7.10536 23.2652 7 23 7H17V1C17 0.734784 16.8946 0.48043 16.7071 0.292893C16.5196 0.105357 16.2652 0 16 0H1C0.734784 0 0.48043 0.105357 0.292893 0.292893C0.105357 0.48043 0 0.734784 0 1V9V16C0 16.2652 0.105357 16.5196 0.292893 16.7071C0.48043 16.8946 0.734784 17 1 17H7V23C7 23.2652 7.10536 23.5196 7.29289 23.7071C7.48043 23.8946 7.73478 24 8 24H23C23.2652 24 23.5196 23.8946 23.7071 23.7071C23.8946 23.5196 24 23.2652 24 23V15ZM15.4137 22L2 8.58625V3.41375L20.5863 22H15.4137ZM3.41375 2H8.58625L22 15.4137V20.5863L3.41375 2ZM22 12.5863L18.4137 9H22V12.5863ZM15 5.58625L11.4137 2H15V5.58625ZM2 11.4137L5.58625 15H2V11.4137ZM9 18.4137L12.5863 22H9V18.4137Z" fill="#525252"/>
</svg>
